<svg xmlns="http://www.w3.org/2000/svg" viewBox="0 0 64 64">
  <defs>
    <linearGradient id="g" x1="0" y1="0" x2="1" y2="1">
      <stop offset="0" stop-color="#4f46e5"/>
      <stop offset="1" stop-color="#7c3aed"/>
    </linearGradient>
  </defs>
  <rect x="4" y="4" width="56" height="56" rx="14" fill="url(#g)"/>
  <g fill="#ffffff">
    <path d="M32 16c-8.284 0-15 6.716-15 15s6.716 15 15 15 15-6.716 15-15-6.716-15-15-15zm0 26.5c-6.351 0-11.5-5.149-11.5-11.5S25.649 19.5 32 19.5 43.5 24.649 43.5 31 38.351 42.5 32 42.5z" opacity="0.2"/>
    <path d="M32 44c-0.9 0-1.63-0.51-1.95-1.33L24.3 27.4c-0.29-0.72 0.21-1.4 0.99-1.4h3.01c0.57 0 1.08 0.35 1.28 0.88l2.36 6.47h0.12l2.34-6.45c0.2-0.55 0.71-0.9 1.29-0.9h2.92c0.79 0 1.29 0.69 1 1.4l-5.73 15.27C33.63 43.49 32.9 44 32 44z"/>
  </g>
</svg>
